<svg xmlns="http://www.w3.org/2000/svg" viewBox="0 0 816.63 1.98">
  <defs>
    <style>
      .cls-1 {
        fill: #551c83;
      }
    </style>
  </defs>
  <g id="Layer_2" data-name="Layer 2">
    <g id="Layer_1-2" data-name="Layer 1">
      <path class="cls-1" d="M409.49,2C404,2,398.41,1.91,393,1.83c-4.33-.05-8.82-.11-13.23-.13-4.87,0-9.82,0-14.61,0L357,1.79c-2.26,0-4.53,0-6.79.06-5.38,0-10.94.11-16.41-.06-8.14-.24-16.42-.19-24.43-.13-5.14,0-10.46.07-15.7,0-7.17-.07-14.47,0-21.52.05-5,0-10.21.1-15.32.08-6.79,0-13.7,0-20.38-.09-5.88,0-11.77-.07-17.66-.08-3.88,0-7.83,0-11.66.06s-7.67.08-11.53.07c-5.63,0-11.35-.05-16.89-.08-6.13,0-12.46-.09-18.7-.09-5.9,0-11.9,0-17.71.07l-17.48.07c-3.35,0-6.75-.07-10-.14-2.68-.05-5.44-.11-8.16-.13-6.18,0-12.47,0-18.56,0h-.48l-20.46.11c-12,.06-24.46.13-36.69.16-6.59,0-13.31,0-19.79-.1L2.28,1.59H2a2.13,2.13,0,0,1-1.8-.55L0,.87.18.7A2.74,2.74,0,0,1,2.5.14l.6,0c12.74,0,26.56,0,42.25,0l20.43,0c11.54,0,23.08.05,34.63,0,6.49,0,13.21-.08,19.82,0,11.6.2,23.39.13,34.8.07q8.06,0,16.11-.07c7.22,0,14.57.06,21.67.12,6.46.06,13.14.12,19.7.12,6.31,0,12.72,0,18.92-.09,5.6,0,11.38-.1,17.08-.1h2.62c5.78,0,11.77,0,17.66.22,4.42.17,8.92.09,13.28,0,2.16,0,4.39-.07,6.58-.08l9.74,0c12.27,0,25-.09,37.46-.07,3.65,0,7.37.08,11,.15s7.55.16,11.33.16c5.19,0,10.47-.06,15.58-.12C378.39.38,383.22.33,388,.32c5.44,0,11,0,16.33.07,4.41,0,9,.06,13.47.06,6.71,0,13.51,0,20.1,0l11.35,0,10.47,0c10.41,0,21.17-.06,31.76,0,3.71,0,7.48.07,11.12.13,3.95.06,8.05.13,12.05.13,7.19,0,14.51-.08,21.58-.15L547.33.29c6,0,10.85-.06,15.33,0,1,0,2.1.08,3.12.16l1,.08a3.38,3.38,0,0,1,.54.09,2.46,2.46,0,0,0,.64.07A91.65,91.65,0,0,1,580.36.48c2.29.08,4.66.16,7,.13l8.83-.1q5.1-.07,10.22-.12c6.38-.07,13-.14,19.47-.17l5.18,0c8.48,0,17.25-.11,25.88-.08,3.16,0,6.36.07,9.47.13,3.39.07,6.88.13,10.36.14,6.87,0,13.87-.08,20.64-.14L711.51.13q3.93,0,7.84-.06c8-.06,16.31-.13,24.46,0,5.16.11,10.39.07,15.46,0l5.21,0c13.27,0,26.76-.07,39.8-.08h8.27a22.73,22.73,0,0,1,2.89.16h0c.67.08.82.65.94,1.06a2.63,2.63,0,0,0,.09.3l.15.41-.42-.07-1-.2a9.85,9.85,0,0,0-2.07-.3h0c-4.34,0-8.74,0-13,0h-9.7L778,1.53c-8.85.08-18,.17-27,.08-17-.19-31.21-.19-44.67,0-12.19.15-25.09.21-41.83.19-4.73,0-9.54-.11-14.19-.21-2.83-.06-5.66-.13-8.49-.17-1.18,0-2.39,0-3.56.06-.88,0-1.76.06-2.64.06l-2.06,0-53.45.35c-1.41,0-2.82,0-4.22,0-4.73,0-9.62.09-14.42-.08C552,1.5,542.34,1.61,533,1.71c-3.47,0-6.94.07-10.41.09l-9.12.05c-9.64.06-19.6.12-29.4,0-16.27-.22-32.82-.11-48.82,0-8.15.06-16.58.12-24.87.13Zm-33-.79h3.26c4.41,0,8.89.08,13.23.13,5.7.08,11.6.16,17.38.15,8.29,0,16.71-.07,24.86-.13,16-.11,32.56-.22,48.84,0,9.79.12,19.75.06,29.39,0l9.12-.05c3.47,0,6.94-.06,10.41-.09,9.33-.1,19-.21,28.47.13,4.79.17,9.67.12,14.39.08l4.23,0L633.56,1l2.05,0c.88,0,1.76,0,2.64-.06,1.17,0,2.38-.08,3.58-.06,2.83,0,5.66.11,8.49.17,4.65.1,9.45.21,14.18.21,16.74,0,29.64,0,41.82-.19C719.78.92,734,.92,751,1.11c9,.09,18.14,0,27-.08L790.36.92h9.71c4.25,0,8.66,0,13,0a10.51,10.51,0,0,1,2.24.31l.58.12c-.12-.41-.21-.6-.5-.63h0a21.75,21.75,0,0,0-2.83-.16h-8.27c-13,0-26.53,0-39.79.08l-5.22,0c-5.06,0-10.31.07-15.47,0-8.14-.16-16.43-.09-24.44,0l-7.84.06L697.39.74c-6.77.06-13.76.13-20.64.14-3.46,0-7-.07-10.37-.14-3.1-.06-6.31-.13-9.46-.13-8.63,0-17.4,0-25.88.08l-5.18,0c-6.49,0-13.09.1-19.47.17L596.17,1l-8.82.1c-2.34,0-4.71-.05-7-.13A90.6,90.6,0,0,0,568,1.14a2.66,2.66,0,0,1-.8-.08,2.46,2.46,0,0,0-.46-.08l-1-.08c-1-.08-2.06-.16-3.08-.16-4.48,0-9.35,0-15.32.05L536.19.9c-7.07.07-14.38.14-21.58.15-4,0-8.1-.07-12.05-.13-3.65-.06-7.41-.13-11.12-.13-10.59,0-21.35,0-31.76,0l-10.47,0L437.86.9c-6.59,0-13.4.07-20.1,0-4.49,0-9.06,0-13.48-.06C398.93.85,393.4.81,388,.82c-4.74,0-9.56.06-14.22.12-5.11.06-10.39.12-15.59.12-3.78,0-7.62-.08-11.34-.16s-7.31-.15-11-.15c-12.48,0-25.18,0-37.45.07l-9.74,0c-2.19,0-4.42.05-6.57.08-4.36.07-8.88.15-13.31,0C262.89.68,256.91.69,251.13.69h-2.62c-5.69,0-11.48.05-17.07.1-6.21,0-12.62.1-18.93.09-6.57,0-13.25-.06-19.7-.12C185.7.71,178.36.66,171.14.65q-8.05,0-16.11.07c-11.41.06-23.2.13-34.81-.07-6.6-.12-13.31-.07-19.81,0C88.87.7,77.32.67,65.78.65L45.35.63C29.66.63,15.84.64,3.1.66h0l-.64,0A2.58,2.58,0,0,0,.74.89,2,2,0,0,0,2,1.1h.32l8.36.08c6.49.06,13.19.12,19.79.1,12.23,0,24.66-.1,36.69-.16L87.58,1h.48c6.08,0,12.38-.06,18.57,0,2.72,0,5.48.08,8.16.13,3.39.07,6.92.15,10.36.14,5.72,0,11.53,0,17.15-.07,5.8,0,11.81-.07,17.71-.07,6.24,0,12.57,0,18.7.09,5.54,0,11.26.07,16.89.08,3.84,0,7.75,0,11.53-.07s7.77-.08,11.66-.06c5.89,0,11.78.05,17.67.08,6.68.05,13.58.09,20.37.09h.23c5,0,10.14,0,15.08-.08,7.06-.05,14.36-.12,21.54-.05,5.23,0,10.55,0,15.69,0,8-.06,16.3-.11,24.45.13,5.45.17,11,.11,16.38.06l6.8-.06,8.17-.05C368.89,1.22,372.72,1.19,376.53,1.19Z"/>
    </g>
  </g>
</svg>
